Results
version=1
nRows=12
nColumns=24
inDegrees=yes
endheader
time	pelvis_tilt	pelvis_list	pelvis_rotation	pelvis_tx	pelvis_ty	pelvis_tz	hip_flexion_r	hip_adduction_r	hip_rotation_r	knee_angle_r	ankle_angle_r	subtalar_angle_r	mtp_angle_r	hip_flexion_l	hip_adduction_l	hip_rotation_l	knee_angle_l	ankle_angle_l	subtalar_angle_l	mtp_angle_l	lumbar_extension	lumbar_bending	lumbar_rotation
      0.72800000	     -4.31206069	      0.08908772	      0.70880053	     -0.46893834	      1.00851869	      0.30298872	     15.42318883	      2.16096950	     -0.42562049	    -20.97034138	      9.59967818	     -7.55568377	      2.38444570	     16.27813400	      0.11117545	     -1.57988984	    -65.75991668	     -8.48303040	     -2.85109516	      8.28436863	    -10.52401839	      5.62472879	      1.11998567
      0.73216667	     -4.28344073	      0.15588756	      0.81785628	     -0.46392288	      1.00942085	      0.30303291	     14.89646609	      2.09580381	     -0.45925893	    -20.61036638	      9.60275505	     -7.66248353	      2.34787795	     16.80056621	      0.16333857	     -1.53876499	    -65.70906832	     -7.92643512	     -3.23613318	      8.21975897	    -10.62387182	      5.44480996	      1.41937672
      0.73633333	     -4.27755707	      0.26628595	      0.90288697	     -0.45882033	      1.01030333	      0.30306769	     14.38755983	      1.98490899	     -0.47711560	    -20.24790066	      9.67820299	     -7.70732236	      2.33085510	     17.30876411	      0.26158196	     -1.53248446	    -65.54904906	     -7.36294086	     -3.57077509	      8.19483350	    -10.61900268	      5.27888063	      1.53985276
      0.74050000	     -4.21255567	      0.35839741	      0.98890958	     -0.45376385	      1.01126899	      0.30312822	     13.79880086	      1.90422026	     -0.46344577	    -19.83858067	      9.66324323	     -7.85235827	      2.26823506	     17.74912301	      0.33735879	     -1.52369019	    -65.33416372	     -6.83343179	     -3.93951155	      8.08361983	    -10.74943288	      5.05613403	      1.91703093
      0.74466667	     -4.22653410	      0.47490698	      1.07058696	     -0.44870734	      1.01209323	      0.30313978	     13.32274167	      1.78620763	     -0.48683648	    -19.49294747	      9.71227118	     -7.88967363	      2.24906818	     18.25968253	      0.44682518	     -1.52355861	    -65.05461562	     -6.24166184	     -4.26609930	      8.05742592	    -10.73895575	      4.88662763	      1.99417136
      0.74883333	     -4.21716318	      0.60072458	      1.15509912	     -0.44365283	      1.01293496	      0.30314220	     12.81883289	      1.65841326	     -0.52103133	    -19.13964550	      9.73034552	     -7.95395690	      2.22427697	     18.72816083	      0.57072390	     -1.51972538	    -64.70338344	     -5.66171648	     -4.60174288	      8.02224781	    -10.77322419	      4.69222441	      2.12997331
      0.75300000	     -4.15214768	      0.72649818	      1.23409319	     -0.43861785	      1.01386831	      0.30317840	     12.23628298	      1.54282077	     -0.50482096	    -18.73977537	      9.70381103	     -8.08374921	      2.16482346	     19.11790128	      0.69319432	     -1.51293131	    -64.27146346	     -5.13542911	     -4.93146252	      7.92152686	    -10.92424269	      4.42396311	      2.42587803
      0.75716667	     -4.15462023	      0.85785769	      1.30564525	     -0.43353801	      1.01467130	      0.30316510	     11.74189962	      1.41012384	     -0.53293507	    -18.38037244	      9.72117380	     -8.13187811	      2.13646615	     19.56232752	      0.81967335	     -1.53107969	    -63.78396904	     -4.55100250	     -5.22229721	      7.87892994	    -10.91808519	      4.24645239	      2.53226205
      0.76133333	     -4.06151998	      0.98980329	      1.37423287	     -0.42844565	      1.01563020	      0.30317678	     11.11497596	      1.28794098	     -0.52217146	    -17.95492613	      9.69766094	     -8.25932681	      2.05684988	     19.87605926	      0.94542908	     -1.54177165	    -63.20482331	     -4.03999868	     -5.49618176	      7.73601837	    -11.06079073	      4.00909628	      2.80539798
      0.76550000	     -4.04277330	      1.11407553	      1.43645523	     -0.42340245	      1.01641881	      0.30317424	     10.59433908	      1.17004368	     -0.52415876	    -17.57736165	      9.66963628	     -8.35678877	      1.93754589	     20.26696950	      1.06472641	     -1.55942601	    -62.59252896	     -3.46536515	     -5.75693914	      7.51091400	    -11.11531102	      3.79833865	      3.01208865
      0.76966667	     -4.05618381	      1.25307243	      1.52399943	     -0.41836528	      1.01713107	      0.30310091	     10.12047495	      1.02436504	     -0.58031487	    -17.23289437	      9.65849668	     -8.39858186	      1.90502944	     20.67785603	      1.22100218	     -1.53812841	    -61.91631046	     -2.90554027	     -5.97551874	      7.45886218	    -11.12245511	      3.60024714	      3.06743100
      0.77383333	     -3.98157775	      1.39996245	      1.59886976	     -0.41328533	      1.01799487	      0.30303766	      9.52352367	      0.87887867	     -0.60006108	    -16.82872373	      9.62418360	     -8.49822963	      1.84009639	     20.95690084	      1.38083449	     -1.52534076	    -61.14194951	     -2.41384966	     -6.17925123	      7.33720654	    -11.23759498	      3.38535116	      3.23396563
